<?xml version="1.0" standalone="no"?>
<!DOCTYPE svg PUBLIC "-//W3C//DTD SVG 20010904//EN"
 "http://www.w3.org/TR/2001/REC-SVG-20010904/DTD/svg10.dtd">
<svg version="1.0" xmlns="http://www.w3.org/2000/svg"
 width="148.000000pt" height="148.000000pt" viewBox="0 0 148.000000 148.000000"
 preserveAspectRatio="xMidYMid meet">
<metadata>
Created by potrace 1.11, written by Peter Selinger 2001-2013
</metadata>
<g transform="translate(0.000000,148.000000) scale(0.100000,-0.100000)"
fill="#000000" stroke="none">
<path d="M0 740 l0 -740 740 0 740 0 0 740 0 740 -740 0 -740 0 0 -740z m592
260 c-2 -88 0 -160 5 -160 5 0 75 72 156 160 l148 160 100 0 100 0 -138 -157
c-76 -86 -137 -161 -135 -167 2 -6 71 -125 153 -264 82 -139 149 -255 149
-257 0 -3 -45 -5 -99 -5 l-99 0 -117 205 c-65 113 -119 205 -121 205 -1 0 -25
-24 -53 -52 l-51 -53 0 -152 0 -153 -90 0 -90 0 0 425 0 425 93 0 92 0 -3
-160z"/>
</g>
</svg>
